<svg width="707" height="424" viewBox="0 0 707 424" fill="none" xmlns="http://www.w3.org/2000/svg">
<path d="M461.936 85.7388L460.449 85.7502" stroke="#D83A56" stroke-width="3" stroke-miterlimit="10"/>
<path d="M457.576 85.7729L436.023 85.9446" stroke="#D83A56" stroke-width="3" stroke-miterlimit="10" stroke-dasharray="6 6"/>
<path d="M434.586 85.9562L433.098 85.9677L433.105 84.48" stroke="#D83A56" stroke-width="3" stroke-miterlimit="10"/>
<path d="M433.116 81.4745L433.327 31.7239C433.327 31.7239 426.003 17.3048 414.33 31.4951L414.788 90.7737C414.788 90.7737 412.499 104.964 395.791 104.735C395.791 104.735 382.517 103.362 380.915 90.316L380.512 68.3577" stroke="#D83A56" stroke-width="3" stroke-miterlimit="10" stroke-dasharray="6 6"/>
<path d="M380.484 66.8563L380.457 65.3687L378.969 65.3938" stroke="#D83A56" stroke-width="3" stroke-miterlimit="10"/>
<path d="M375.982 65.4468L275.868 67.1496" stroke="#D83A56" stroke-width="3" stroke-miterlimit="10" stroke-dasharray="6 6"/>
<path d="M274.373 67.1744L272.886 67.1996L272.87 65.7119" stroke="#D83A56" stroke-width="3" stroke-miterlimit="10"/>
<path d="M272.833 62.7047L272.199 8.37886C272.199 8.37886 264.417 -5.35365 254.804 8.60773L255.695 111.128" stroke="#D83A56" stroke-width="3" stroke-miterlimit="10" stroke-dasharray="6 6"/>
<path d="M255.708 112.631L255.72 114.119L254.232 114.082" stroke="#D83A56" stroke-width="3" stroke-miterlimit="10"/>
<path d="M251.174 114.007L222.116 113.279" stroke="#D83A56" stroke-width="3" stroke-miterlimit="10"/>
<path d="M220.587 113.242L219.1 113.204L219.116 111.716" stroke="#D83A56" stroke-width="3" stroke-miterlimit="10"/>
<path d="M219.15 108.699L219.558 72.2348C219.558 72.2348 211.803 62.8875 206.983 73.0542L206.789 85.4889" stroke="#D83A56" stroke-width="3" stroke-miterlimit="10" stroke-dasharray="6 6"/>
<path d="M206.764 86.9976L206.741 88.4852H205.253" stroke="#D83A56" stroke-width="3" stroke-miterlimit="10"/>
<path d="M202.387 88.4854H140.77" stroke="#D83A56" stroke-width="3" stroke-miterlimit="10" stroke-dasharray="6 6"/>
<path d="M139.337 88.4854H137.849" stroke="#D83A56" stroke-width="3" stroke-miterlimit="10"/>
<path d="M319.347 82.9922C319.347 82.9922 317.745 98.3268 320.72 104.049L328.273 110.686C328.273 110.686 308.819 121.214 293.484 118.239C278.149 115.264 279.294 108.168 279.294 108.168C279.294 108.168 281.354 107.482 281.811 105.193C282.269 102.904 282.498 85.5098 282.498 85.5098L319.347 82.9922Z" fill="#DFB78D"/>
<path d="M260.755 103.362C260.755 103.362 270.597 104.735 278.836 107.024L280.667 106.337C280.667 106.337 281.354 107.024 282.498 107.482C283.643 107.939 302.41 119.154 325.984 107.024L329.418 108.397V109.541C329.418 109.541 352.534 109.084 354.365 110.457C356.196 111.83 368.326 112.975 376.108 128.767C383.89 144.559 385.263 162.412 386.179 171.338L244.047 171.109C244.047 171.109 243.36 167.905 242.445 164.014C241.529 160.123 235.808 151.883 235.808 151.883C235.808 151.883 262.128 127.165 260.755 103.362Z" fill="#D83A56"/>
<path d="M370.835 164.373C370.835 164.373 370.988 162.039 372.412 158.347C373.835 154.655 375.98 152.385 376.06 148.938C376.14 145.489 381.104 146.056 381.166 148.265C381.228 150.474 380.26 161.679 379.88 162.265C379.498 162.851 379.436 171.645 379.436 171.645L370.137 167.751L370.837 164.373H370.835Z" fill="#F0D1BA"/>
<path d="M380.793 154.328C380.793 154.328 377.449 156.015 376.511 158.736C375.57 161.458 374.586 167.319 374.586 167.319L379.395 168.541C379.395 168.541 379.623 161.872 380.154 159.913C380.685 157.956 380.793 154.328 380.793 154.328Z" fill="#AE8A5D"/>
<path d="M282.43 95.9328C282.43 95.9328 294.67 95.3469 306.379 86.5947L282.43 86.375V95.9328Z" fill="#AE8A5D"/>
<path d="M283.642 85.9671C283.642 85.9671 280.438 87.5693 275.174 88.4848L274.03 84.5939C274.03 84.5939 275.174 86.8826 271.054 87.7981C266.935 88.7136 264.646 88.2559 264.646 88.2559C264.646 88.2559 266.935 87.5693 267.621 86.4249C268.308 85.2805 263.959 85.5094 262.815 84.8228C261.67 84.1361 259.382 87.3404 260.297 92.1468C260.297 92.1468 256.406 88.9425 258.008 85.0516C258.008 85.0516 256.864 86.8826 255.72 88.027C254.575 89.1714 254.118 81.6185 257.093 78.4143C260.068 75.21 263.273 74.0656 262.815 70.6325C262.357 67.1994 258.008 45.6851 267.85 40.421C277.692 35.1569 275.783 29.6318 275.783 29.6318L283.642 26.6885V85.9671Z" fill="#121211"/>
<path d="M272.293 33.1591C272.293 33.1591 272.56 45.1933 272.56 51.0708C272.56 56.9484 271.492 67.8634 272.56 70.9418C273.629 74.0202 281.111 86.8944 283.517 88.8536C285.922 90.8127 290.465 93.3326 293.672 92.2112C296.878 91.092 313.715 83.5345 315.319 81.5753C316.923 79.6162 320.611 70.2391 320.611 70.2391C320.611 70.2391 324.673 68.1404 326.811 61.4229C328.948 54.7054 327.88 42.6711 323.336 45.7495L317.992 48.2694C317.992 48.2694 319.862 25.3201 318.528 21.1202C317.191 16.9227 309.977 9.92596 305.967 9.64444C301.96 9.36522 274.7 17.7604 272.295 33.1545L272.293 33.1591Z" fill="#ECCAA5"/>
<path d="M306.466 48.9586C306.466 48.9586 302.694 43.1131 297.153 46.9079C297.153 46.9079 296.592 47.7295 298.526 46.9262C300.458 46.1228 302.662 45.5987 306.466 48.9609V48.9586Z" fill="black"/>
<path d="M299.758 51.556C300.971 51.556 301.955 50.5671 301.955 49.3473C301.955 48.1275 300.971 47.1387 299.758 47.1387C298.544 47.1387 297.561 48.1275 297.561 49.3473C297.561 50.5671 298.544 51.556 299.758 51.556Z" fill="black"/>
<path d="M275.41 48.8007C275.41 48.8007 278.903 43.2299 283.055 47.3886C283.055 47.3886 283.439 48.2446 281.949 47.313C280.459 46.3815 278.731 45.7086 275.41 48.8007Z" fill="black"/>
<path d="M278.86 51.6496C279.838 51.6182 280.599 50.6044 280.56 49.3853C280.521 48.1661 279.696 47.2032 278.718 47.2346C277.74 47.266 276.98 48.2798 277.019 49.499C277.058 50.7182 277.882 51.6811 278.86 51.6496Z" fill="black"/>
<path d="M320.491 119.154C320.491 119.154 305.615 131.971 283.643 127.623C283.643 127.623 309.505 134.718 320.491 119.154Z" fill="#C11D42"/>
<path d="M279.523 129.454C279.523 129.454 298.062 135.862 309.963 131.056C309.963 131.056 291.882 138.609 279.523 129.454Z" fill="#C11D42"/>
<path d="M362.376 169.278C362.376 169.278 363.52 156.232 361.918 153.028C361.918 153.028 365.122 159.436 364.207 168.82L362.376 169.278Z" fill="#C11D42"/>
<path d="M357.798 113.89C357.798 113.89 355.28 134.947 360.545 149.366C360.545 149.366 356.654 128.767 357.798 113.89Z" fill="#C11D42"/>
<path d="M271.054 77.2699C271.054 77.2699 261.671 69.2593 263.273 58.5022C264.875 47.745 266.248 46.3718 270.139 43.3964C274.03 40.421 278.836 30.8083 280.667 27.3751C282.498 23.942 293.37 15.8169 302.525 16.7324C302.525 16.7324 309.391 8.49294 320.377 10.3239C320.377 10.3239 308.819 2.65662 299.435 4.48762C290.051 6.31862 274.945 7.92075 267.164 23.942C267.164 23.942 264.646 35.1569 261.442 40.1921C258.237 45.2274 245.42 57.3578 258.009 69.0304C258.009 69.0304 249.082 55.069 257.78 47.2873C257.78 47.2873 254.347 61.4775 260.068 69.9459C260.068 69.9459 260.755 78.6432 271.054 77.2699Z" fill="#191818"/>
<path d="M285.016 39.0477C285.016 39.0477 281.354 44.5407 275.632 42.0231C275.632 42.0231 274.945 40.8787 276.09 40.8787C277.234 40.8787 283.414 39.5054 284.558 37.9033C284.558 37.9033 285.703 37.9033 285.016 39.0477Z" fill="#212020"/>
<path d="M298.469 39.9039C298.469 39.9039 300.351 44.5409 309.048 41.3366L309.963 39.2768C309.963 39.2768 310.192 38.1324 309.277 38.819C308.361 39.5056 305.688 41.0345 301.875 39.3546C298.062 37.6746 298.469 39.9039 298.469 39.9039Z" fill="#212020"/>
<path d="M286.389 57.5869C286.389 57.5869 284.558 63.3088 285.474 64.9109C286.389 66.513 288.22 66.9708 288.22 66.9708C288.22 66.9708 285.931 65.8264 286.16 62.851C286.389 59.8757 286.389 57.5869 286.389 57.5869Z" fill="#AE8A5D"/>
<path d="M286.16 75.4394C286.16 75.4394 288.678 69.2597 294.629 74.7527C294.629 74.7527 295.086 79.5591 288.449 78.6436C288.449 78.6436 286.389 77.7281 286.16 75.4394Z" fill="#F0A7BE"/>
<path d="M287.305 77.2705C287.305 77.2705 291.443 76.7029 293.15 77.7877C293.15 77.7877 289.136 80.2459 287.305 77.2705Z" fill="#D83A56"/>
<path d="M372.016 6.88891C360.059 6.16566 349.778 15.2703 349.055 27.2268C348.792 31.5731 349.829 35.6974 351.827 39.2221L348.16 46.6583L357.864 46.0197C361.114 48.4114 365.067 49.9243 369.393 50.1875C381.349 50.9108 391.63 41.8061 392.354 29.8497C393.077 17.8932 383.972 7.61215 372.016 6.88891Z" fill="#FCFCFC" stroke="#D83A56" stroke-width="3" stroke-miterlimit="10"/>
<path d="M280.667 106.337L278.836 107.024C278.836 107.024 283.185 113.89 301.266 114.806C319.347 115.721 329.417 108.397 329.417 108.397L325.984 107.024C325.984 107.024 303.554 120.528 280.667 106.337Z" fill="#C11D42"/>
<path d="M302.41 16.6186C302.41 16.6186 304.012 15.4742 304.928 22.1116C305.843 28.749 303.097 56.6718 318.889 51.6365C318.889 51.6365 320.034 52.552 319.576 56.214C319.118 59.876 324.153 72.693 308.132 77.7283C308.132 77.7283 306.301 80.9325 316.372 79.5593C316.372 79.5593 313.625 84.1368 303.555 85.51C303.555 85.51 301.495 87.7988 306.988 87.5699C312.481 87.341 317.516 84.8234 317.516 84.8234C317.516 84.8234 313.396 88.2565 311.107 88.7143C308.819 89.172 316.829 91.2319 320.034 89.6298C323.238 88.0277 325.984 85.51 328.044 85.0523C330.104 84.5945 340.175 80.9325 342.463 71.3198C344.752 61.707 344.065 52.3231 341.777 45.228C339.488 38.1329 339.717 24.8581 327.586 15.0165C327.586 15.0165 322.322 9.98123 318.66 9.75235C314.998 9.52348 304.928 9.98123 302.41 16.6186Z" fill="#212020"/>
<path d="M230.086 21.8822C230.086 21.8822 236.037 13.185 244.505 15.016C252.973 16.847 260.755 20.7378 269.223 22.1111C277.692 23.4843 292.569 21.8822 292.569 21.8822C292.569 21.8822 296.231 21.8822 295.544 24.6287C294.857 27.3752 293.942 27.3752 293.942 27.3752C293.942 27.3752 305.386 28.2907 308.132 27.833C308.132 27.833 310.879 28.5196 309.048 31.7239C309.048 31.7239 313.625 29.8928 314.083 33.0971C314.541 36.3014 311.565 37.6746 307.446 37.4457C307.446 37.4457 308.59 38.3612 304.47 39.2767C300.35 40.1922 282.956 38.3612 282.956 38.3612C282.956 38.3612 277.234 39.5056 271.97 39.0479C266.706 38.5901 265.333 39.7345 264.417 41.3366C263.502 42.9387 262.586 46.143 263.959 48.4317C265.333 50.7205 268.995 56.9001 264.188 61.0199C264.188 61.0199 260.297 63.7664 258.695 58.0445C258.695 58.0445 256.864 48.4317 254.804 45.9141C252.744 43.3965 244.047 36.7591 243.589 34.9281C243.132 33.0971 241.53 32.8682 241.072 32.8682C240.614 32.8682 237.41 35.3859 237.41 35.3859L228.941 23.9421L230.086 21.8822Z" fill="#F0D1BA"/>
<path d="M240.843 23.9419C240.843 23.9419 241.529 25.3151 241.758 27.8328C241.987 30.3504 241.301 31.7236 242.674 32.6391C242.674 32.6391 241.987 31.037 242.216 29.206C242.445 27.375 241.529 23.713 240.843 23.9419Z" fill="#AE8A5D"/>
<path d="M244.962 32.8678C244.962 32.8678 249.54 34.241 252.286 32.8678C255.033 31.4945 262.815 29.2058 266.477 30.1213C266.477 30.1213 261.213 28.0614 253.202 31.7234C253.202 31.7234 248.624 33.7833 244.962 32.8678Z" fill="#AE8A5D"/>
<path d="M254.575 34.6992C254.575 34.6992 265.332 35.157 266.248 38.3612C266.248 38.3612 268.079 34.6992 254.575 34.6992Z" fill="#AE8A5D"/>
<path d="M273.801 28.2905C273.801 28.2905 292.34 28.7482 294.628 26.4595C294.628 26.4595 293.942 29.8926 273.801 28.2905Z" fill="#AE8A5D"/>
<path d="M280.438 33.5545C280.438 33.5545 301.495 33.3257 305.385 33.7834C305.385 33.7834 308.938 33.9757 309.565 30.6753C309.565 30.6753 307.674 34.2412 303.097 33.0968L280.438 33.5545Z" fill="#AE8A5D"/>
<path d="M285.245 36.3013L306.53 37.2168C306.53 37.2168 287.762 37.2168 285.245 36.3013Z" fill="#AE8A5D"/>
<path d="M275.174 29.2061C275.174 29.2061 279.065 32.1814 280.438 34.0124C281.811 35.8434 284.329 37.2167 284.558 37.9033C284.558 37.9033 283.871 36.7589 282.04 34.9279C280.209 33.0969 277.005 29.2061 275.174 29.2061Z" fill="#AE8A5D"/>
<path d="M213.149 33.0973C213.149 33.0973 223.448 26.4599 225.966 23.9423C228.484 21.4247 229.399 21.1958 229.399 21.1958C229.399 21.1958 243.132 23.9423 240.843 39.5058C240.843 39.5058 234.434 42.2523 233.061 44.0833C231.688 45.9143 227.339 49.5763 227.339 49.5763C227.339 49.5763 219.786 34.9283 213.149 33.0973Z" fill="#C11D42"/>
<path d="M215.896 32.411C215.896 32.411 212.005 31.2666 209.487 32.411C206.969 33.5553 201.476 39.735 197.814 44.7702C194.152 49.8055 184.769 57.8161 180.42 62.1647C176.071 66.5134 163.254 77.4994 158.448 88.7142C153.642 99.9291 160.508 104.278 161.423 105.651C162.339 107.024 198.959 132.201 206.283 135.634C213.607 139.067 231.917 147.764 235.35 153.257C235.35 153.257 241.758 147.993 243.589 145.246C245.42 142.5 263.959 118.697 260.755 103.362C260.755 103.362 254.347 101.074 246.336 103.362C246.336 103.362 244.505 104.278 243.132 102.905C241.758 101.531 238.783 99.9291 234.434 101.531C234.434 101.531 229.628 99.4714 226.424 101.989C226.424 101.989 225.508 102.905 222.762 101.074C220.015 99.2425 220.244 100.616 217.727 100.158C215.209 99.7003 202.163 95.8094 198.73 92.1474C198.73 92.1474 202.392 88.4854 202.392 85.9677C202.392 83.4501 202.392 85.2811 202.392 85.2811C202.392 85.2811 205.138 81.6191 205.367 79.5592C205.596 77.4994 206.054 76.8127 207.656 74.7529C209.258 72.693 225.508 62.8514 228.026 56.9006C230.544 50.9498 228.026 45.4568 228.026 45.4568C228.026 45.4568 221.16 32.8687 215.896 32.411Z" fill="#D83A56"/>
<path d="M226.195 103.82C226.195 103.82 239.241 114.806 238.326 135.633C238.326 135.633 240.386 106.566 226.195 103.82Z" fill="#C11D42"/>
<path d="M236.952 102.675C236.952 102.675 249.769 107.711 249.54 121.672C249.54 121.672 252.745 107.711 236.952 102.675Z" fill="#C11D42"/>
<path d="M199.417 93.9779C199.417 93.9779 202.621 100.615 197.128 106.337C197.128 106.337 201.934 103.362 201.934 99.0132C201.934 94.6646 199.815 93.4058 199.815 93.4058L199.417 93.9779Z" fill="#C11D42"/>
<path d="M200.79 85.7385C200.79 85.7385 188.202 88.2562 188.431 69.7173C188.431 69.7173 191.177 86.654 201.706 84.5942L200.79 85.7385Z" fill="#C11D42"/>
<path d="M205.368 76.1257C205.368 76.1257 206.054 62.851 211.547 59.189C211.547 59.189 206.741 67.4285 205.368 76.1257Z" fill="#C11D42"/>
<path d="M195.755 92.605C195.755 92.605 181.107 94.436 178.818 91.6895C178.818 91.6895 190.262 98.5557 195.755 92.605Z" fill="#C11D42"/>
<path d="M197.586 93.52C197.586 93.52 187.057 101.073 180.649 101.988C180.649 101.988 195.068 100.157 197.586 93.52Z" fill="#C11D42"/>
<path d="M158.906 101.073C158.906 101.073 163.483 104.735 168.061 104.964C172.638 105.193 186.371 103.133 186.371 103.133C186.371 103.133 180.191 108.626 183.853 114.806C187.515 120.985 208.572 131.971 213.378 136.32C218.185 140.669 229.171 147.535 232.375 147.535C235.579 147.535 244.963 142.729 246.565 140.44C246.565 140.44 241.53 146.848 241.072 152.799C240.614 158.75 242.674 163.556 242.674 163.556L244.047 168.134L242.674 168.591C242.674 168.591 240.157 159.665 238.783 157.377C237.41 155.088 231.23 149.366 228.255 147.764C225.28 146.162 205.139 135.862 203.537 134.718C201.934 133.574 158.448 108.855 158.906 101.073Z" fill="#C11D42"/>
<path d="M190.871 163.099H171.801C170.62 163.099 169.663 164.056 169.663 165.236V166.683C169.663 167.863 170.62 168.821 171.801 168.821H190.871C192.051 168.821 193.008 167.863 193.008 166.683V165.236C193.008 164.056 192.051 163.099 190.871 163.099Z" fill="#191F35"/>
<path d="M249.082 163.213H212.691C211.111 163.213 209.83 164.494 209.83 166.074C209.83 167.654 211.111 168.935 212.691 168.935H249.082C250.662 168.935 251.943 167.654 251.943 166.074C251.943 164.494 250.662 163.213 249.082 163.213Z" fill="#191F35"/>
<path d="M674.743 231.461L661.833 208.879L687.646 179.847L652.149 144.357L626.336 170.165L603.749 160.489V125H552.124V160.489L529.537 170.165L500.498 147.582L468.234 179.84L490.821 205.647L484.369 231.454H448.873L448.08 246.377H447L447.061 265.605L447 266.746H447.061L447.109 281.867L479.374 281.764L492.352 304.305L466.628 333.42L502.234 368.793L527.965 342.904L550.579 352.511L550.688 388L602.314 387.836L602.204 352.347L624.764 342.596L653.878 365.09L686.04 332.73L663.371 306.991L669.747 281.163L705.237 281.054L705.941 266.937H707V231.454H674.736L674.743 231.461ZM577.007 314.575C544.927 314.575 518.923 288.576 518.923 256.503C518.923 224.43 544.927 198.432 577.007 198.432C609.087 198.432 635.091 224.43 635.091 256.503C635.091 288.576 609.087 314.575 577.007 314.575Z" fill="#F3F3F3"/>
<path d="M141.025 174.577L133.031 160.667L149.015 142.784L127.034 120.923L111.05 136.82L97.0638 130.86V109H65.0957V130.86L51.1092 136.82L33.1276 122.91L13.1486 142.78L27.1352 158.676L23.1403 174.573H1.15955L0.668647 183.765H0L0.0380875 195.608L0 196.311H0.0380875L0.0677111 205.625L20.0467 205.562L28.0832 219.447L12.1541 237.38L34.2026 259.169L50.1358 243.222L64.1393 249.14L64.207 271L96.1751 270.899L96.1074 249.039L110.077 243.033L128.105 256.888L148.021 236.955L133.983 221.101L137.932 205.192L159.908 205.124L160.344 196.429H161V174.573H141.021L141.025 174.577ZM80.5042 225.772C60.6395 225.772 44.537 209.758 44.537 190.002C44.537 170.246 60.6395 154.232 80.5042 154.232C100.369 154.232 116.472 170.246 116.472 190.002C116.472 209.758 100.369 225.772 80.5042 225.772Z" fill="#F3F3F3"/>
<path d="M127.55 165.387L482.307 165.845C482.307 165.845 493.521 167.447 494.666 178.662L494.895 409.368C494.895 409.368 493.521 420.812 481.62 423.101L127.55 422.872C127.55 422.872 115.877 420.583 114.962 410.055V176.602C114.962 176.602 116.564 167.905 127.55 165.387Z" fill="#32537A"/>
<path d="M128.008 174.084L477.958 172.94C477.958 172.94 483.68 172.253 483.451 177.518C483.222 182.782 483.68 412.572 483.68 412.572C483.68 412.572 483.909 415.548 479.331 415.777H129.152C129.152 415.777 125.948 415.548 126.177 410.741L126.406 176.144C126.406 176.144 126.634 174.313 128.008 174.084Z" fill="white"/>
<path d="M375.218 32.6943L373.872 31.3485C373.753 31.2295 373.563 31.2295 373.444 31.3485C373.325 31.4676 373.325 31.6575 373.444 31.7765L374.817 33.1498C374.904 32.9667 375.037 32.8065 375.216 32.6943H375.218Z" fill="#D83A56"/>
<path d="M377.973 37.3883C377.571 37.3883 377.191 37.2304 376.905 36.9465L374.787 34.8295C374.501 34.5434 374.346 34.1657 374.346 33.7606C374.346 33.3555 374.504 32.9779 374.787 32.6918C375.334 32.1425 376.376 32.1425 376.925 32.6918L379.042 34.8089C379.328 35.0949 379.484 35.4726 379.484 35.8777C379.484 36.2828 379.326 36.6605 379.042 36.9465C378.756 37.2326 378.376 37.3883 377.973 37.3883ZM375.856 32.8657C375.611 32.8657 375.376 32.9573 375.215 33.1198C375.044 33.2914 374.95 33.518 374.95 33.7606C374.95 34.0032 375.044 34.2298 375.215 34.4015L377.333 36.5186C377.676 36.8619 378.271 36.8619 378.614 36.5186C378.786 36.3469 378.88 36.1203 378.88 35.8777C378.88 35.6351 378.786 35.4085 378.614 35.2369L376.497 33.1198C376.335 32.9573 376.101 32.8657 375.856 32.8657Z" fill="#D83A56"/>
<path d="M368.601 33.7607C364.6 33.7607 361.346 30.5061 361.346 26.5053C361.346 22.5046 364.6 19.25 368.601 19.25C372.602 19.25 375.856 22.5046 375.856 26.5053C375.856 30.5061 372.602 33.7607 368.601 33.7607ZM368.601 19.8542C364.934 19.8542 361.95 22.8388 361.95 26.5053C361.95 30.1719 364.934 33.1565 368.601 33.1565C372.268 33.1565 375.252 30.1719 375.252 26.5053C375.252 22.8388 372.268 19.8542 368.601 19.8542Z" fill="#D83A56"/>
<path d="M417.972 165.941C417.972 165.941 416.129 158.436 412.694 158.422C409.258 158.408 405.821 158.706 405.821 158.706C405.821 158.706 402.083 156.191 398.009 159.61C398.009 159.61 392.093 155.213 387.698 160.503C387.698 160.503 385.522 158.308 382.082 159.23C378.642 160.152 376.433 165.764 376.433 165.764L379.244 166.089C379.244 166.089 384.533 171.109 385.455 174.237C386.38 177.364 390.413 183.942 392.912 183.64L394.791 182.71C394.791 182.71 398.515 188.661 402.28 184.303C402.28 184.303 408.821 188.391 406.995 177.14C406.995 177.14 411.991 177.474 411.396 170.287L411.414 165.913L417.974 165.941H417.972Z" fill="#F0D1BA"/>
<path d="M406.995 176.204C406.995 176.204 403.294 164.943 403.61 164.32C403.926 163.698 406.13 159.022 406.13 159.022C406.13 159.022 404.876 159.953 403.933 161.512C402.99 163.071 402.362 163.38 402.978 165.881C403.592 168.383 406.995 176.206 406.995 176.206V176.204Z" fill="#AE8A5D"/>
<path d="M401.66 182.115C401.66 182.115 401.063 175.867 399.2 172.734C397.339 169.603 395.487 164.286 396.117 163.038C396.746 161.791 398.005 159.61 398.005 159.61C398.005 159.61 396.746 161.791 396.739 163.666C396.732 165.54 398.275 169.607 399.206 171.173C400.138 172.738 402.601 181.181 401.971 182.429C401.342 183.676 401.66 182.115 401.66 182.115Z" fill="#AE8A5D"/>
<path d="M395.105 181.463C395.105 181.463 392.024 171.143 390.159 169.262C388.293 167.38 387.371 163.627 387.376 162.691C387.38 161.755 387.696 160.505 387.696 160.505C387.696 160.505 387.38 161.127 388.309 163.318C389.236 165.508 391.722 168.641 392.029 170.205C392.335 171.768 395.105 181.463 395.105 181.463Z" fill="#AE8A5D"/>
<path d="M122.4 294.358C122.4 293.221 121.478 292.298 120.34 292.298C119.203 292.298 118.28 293.221 118.28 294.358V294.587C118.28 295.725 119.203 296.647 120.34 296.647C121.478 296.647 122.4 295.725 122.4 294.587V294.358Z" fill="#191F35"/>
<path d="M252.765 329.163H237.188V353.504H206.681V329.163H161.407V305.067L203.111 241.053H237.188V305.067H252.765V329.163ZM206.681 305.067V271.988L185.714 305.067H206.681Z" stroke="#D83A56" stroke-width="3" stroke-miterlimit="10"/>
<path d="M303.07 355.209C289.708 355.209 279.134 349.95 271.345 339.429C263.557 328.909 259.661 315.076 259.661 297.929C259.661 280.782 263.65 266.477 271.629 256.308C279.608 246.139 290.275 241.056 303.637 241.056C316.999 241.056 328.383 246.48 335.847 257.324C343.31 268.171 347.043 282.029 347.043 298.906C347.043 315.783 343.027 329.793 334.995 339.959C326.964 350.128 316.321 355.212 303.07 355.212V355.209ZM303.395 331.681C308.045 331.681 311.156 328.719 312.726 322.796C314.294 316.873 315.079 308.773 315.079 298.496C315.079 284.379 314.037 275.158 311.955 270.83C309.872 266.504 307.045 264.339 303.477 264.339C299.149 264.339 296.16 267.193 294.512 272.899C292.862 278.607 292.038 286.462 292.038 296.469C292.038 310.046 292.862 319.308 294.512 324.256C296.162 329.205 299.124 331.681 303.397 331.681H303.395Z" stroke="#D83A56" stroke-width="3" stroke-miterlimit="10"/>
<path d="M447.652 329.163H432.075V353.504H401.568V329.163H356.294V305.067L397.998 241.053H432.075V305.067H447.652V329.163ZM401.568 305.067V271.988L380.601 305.067H401.568Z" stroke="#D83A56" stroke-width="3" stroke-miterlimit="10"/>
<path d="M465.958 97.2785C466.559 97.2785 467.047 96.7907 467.047 96.1891C467.047 95.5874 466.559 95.0996 465.958 95.0996C465.356 95.0996 464.868 95.5874 464.868 96.1891C464.868 96.7907 465.356 97.2785 465.958 97.2785Z" fill="#D83A56"/>
<path d="M511.731 56.9528C512.332 56.9528 512.82 56.4651 512.82 55.8634C512.82 55.2617 512.332 54.7739 511.731 54.7739C511.129 54.7739 510.641 55.2617 510.641 55.8634C510.641 56.4651 511.129 56.9528 511.731 56.9528Z" fill="#D83A56"/>
<path d="M494.292 114.716C483.578 114.716 473.531 109.459 467.415 100.648C467.072 100.151 467.193 99.4757 467.69 99.1301C468.184 98.7868 468.864 98.9081 469.207 99.4047C474.915 107.628 484.295 112.535 494.292 112.535C495.031 112.535 495.761 112.51 496.487 112.457C497.071 112.393 497.608 112.867 497.65 113.467C497.693 114.066 497.24 114.586 496.64 114.63C495.867 114.684 495.082 114.714 494.292 114.714V114.716Z" fill="#D83A56"/>
<path d="M525.639 87.1988C525.593 87.1988 525.547 87.1988 525.499 87.1897C524.902 87.1119 524.481 86.5649 524.556 85.9698C524.724 84.6675 524.81 83.3377 524.81 82.0194C524.81 73.6082 521.462 65.7738 515.383 59.9604C514.948 59.5461 514.932 58.8549 515.349 58.4201C515.763 57.9829 516.452 57.9692 516.889 58.3857C523.403 64.6134 526.989 73.0063 526.989 82.0194C526.989 83.4293 526.898 84.8529 526.719 86.2467C526.648 86.796 526.179 87.1988 525.639 87.1988Z" fill="#D83A56"/>
<path d="M475.245 100.996C474.773 100.996 474.339 100.689 474.199 100.213C474.03 99.6361 474.362 99.0295 474.938 98.8579C481.951 96.8026 489.316 95.9008 496.505 96.1068C497.107 96.1228 497.581 96.6264 497.563 97.2283C497.544 97.8302 497.022 98.2926 496.441 98.2857C489.458 98.0774 482.34 98.954 475.552 100.95C475.449 100.98 475.346 100.993 475.245 100.993V100.996Z" fill="#D83A56"/>
<path d="M494.292 67.9665C489.77 67.9665 485.227 67.5156 480.791 66.6276C480.2 66.5108 479.818 65.9364 479.937 65.3436C480.056 64.7508 480.626 64.3686 481.219 64.4899C491.731 66.5955 502.719 66.1172 513.033 63.0869C513.623 62.9221 514.216 63.2516 514.388 63.8284C514.557 64.4052 514.225 65.0117 513.648 65.1834C507.35 67.0304 500.838 67.9665 494.292 67.9665Z" fill="#D83A56"/>
<path d="M493.038 109.205C492.827 109.205 492.612 109.143 492.424 109.015C483.432 102.875 478.062 92.7835 478.062 82.0195C478.062 74.2537 480.862 66.7283 485.94 60.8233C486.332 60.3656 487.021 60.3152 487.476 60.7089C487.932 61.1003 487.984 61.7892 487.591 62.2446C482.851 67.7537 480.241 74.7778 480.241 82.0195C480.241 92.0625 485.256 101.478 493.653 107.214C494.15 107.555 494.278 108.233 493.94 108.729C493.727 109.038 493.386 109.203 493.038 109.203V109.205Z" fill="#D83A56"/>
<path d="M494.292 107.889C493.69 107.889 493.203 107.402 493.203 106.8V57.2413C493.203 56.6394 493.69 56.1519 494.292 56.1519C494.894 56.1519 495.382 56.6394 495.382 57.2413V106.8C495.382 107.402 494.894 107.889 494.292 107.889Z" fill="#D83A56"/>
<path d="M515.802 83.111H472.16C471.558 83.111 471.07 82.6235 471.07 82.0216C471.07 81.4196 471.558 80.9321 472.16 80.9321H515.802C516.404 80.9321 516.891 81.4196 516.891 82.0216C516.891 82.6235 516.404 83.111 515.802 83.111Z" fill="#D83A56"/>
<path d="M494.292 109.267C479.269 109.267 467.047 97.0452 467.047 82.0218C467.047 74.3637 470.297 67.0145 475.964 61.8602C476.41 61.4551 477.099 61.4894 477.502 61.9335C477.907 62.3798 477.875 63.071 477.429 63.4738C472.215 68.2161 469.226 74.9771 469.226 82.0218C469.226 95.8459 480.47 107.088 494.292 107.088C494.995 107.088 495.691 107.058 496.377 107.004C496.97 106.958 497.503 107.402 497.551 108.001C497.599 108.599 497.153 109.128 496.553 109.176C495.807 109.237 495.052 109.267 494.29 109.267H494.292Z" fill="#D83A56"/>
<path d="M509.267 86.3797C509.231 86.3797 509.192 86.3797 509.153 86.3728C508.556 86.311 508.119 85.7754 508.183 85.1758C508.29 84.1344 508.345 83.0701 508.345 82.0196C508.345 71.9788 503.33 62.5606 494.933 56.825C494.434 56.484 494.308 55.8065 494.647 55.3098C494.988 54.8132 495.665 54.6873 496.162 55.0237C505.155 61.1668 510.524 71.2556 510.524 82.0196C510.524 83.1479 510.465 84.2854 510.348 85.4023C510.291 85.9631 509.817 86.3797 509.265 86.3797H509.267Z" fill="#D83A56"/>
<path d="M520.265 86.2444C520.221 86.2444 520.178 86.2398 520.134 86.2353C519.537 86.162 519.109 85.6219 519.18 85.0245C519.299 84.0358 519.358 83.0264 519.358 82.0217C519.358 68.1976 508.114 56.9553 494.292 56.9553C489.902 56.9553 485.581 58.1065 481.798 60.2854C481.276 60.5875 480.61 60.409 480.31 59.8849C480.008 59.3653 480.189 58.697 480.711 58.3995C484.823 56.0283 489.52 54.7764 494.292 54.7764C509.315 54.7764 521.537 66.9983 521.537 82.0217C521.537 83.1111 521.473 84.2097 521.345 85.2831C521.279 85.837 520.809 86.2444 520.265 86.2444Z" fill="#D83A56"/>
<path d="M515.871 120.164H511.95C511.437 120.164 510.995 119.807 510.886 119.305L510.24 116.358C509.336 116.094 508.464 115.733 507.638 115.277L505.097 116.907C504.669 117.184 504.104 117.124 503.74 116.758L500.968 113.986C500.607 113.625 500.545 113.059 500.822 112.629L502.449 110.089C501.994 109.262 501.632 108.39 501.369 107.486L498.423 106.839C497.924 106.731 497.567 106.287 497.567 105.774V101.854C497.567 101.343 497.924 100.899 498.423 100.789L501.367 100.144C501.632 99.24 501.994 98.3657 502.449 97.5417L500.822 95.0012C500.545 94.5709 500.607 94.0056 500.968 93.644L503.74 90.8723C504.102 90.5084 504.669 90.4489 505.097 90.7281L507.64 92.3554C508.471 91.8999 509.341 91.5383 510.242 91.2751L510.888 88.3295C510.998 87.8282 511.439 87.4712 511.952 87.4712H515.873C516.385 87.4712 516.827 87.8282 516.937 88.3295L517.583 91.2751C518.484 91.5383 519.356 91.8999 520.185 92.3554L522.728 90.7281C523.156 90.4511 523.723 90.5107 524.085 90.8723L526.857 93.644C527.218 94.0056 527.28 94.5732 527.003 95.0012L525.376 97.5463C525.831 98.3771 526.193 99.2468 526.456 100.149L529.402 100.792C529.901 100.902 530.258 101.346 530.258 101.856V105.777C530.258 106.289 529.901 106.733 529.402 106.841L526.456 107.489C526.193 108.386 525.831 109.258 525.376 110.091L527.003 112.631C527.28 113.064 527.218 113.627 526.857 113.989L524.085 116.765C523.721 117.127 523.156 117.184 522.725 116.909L520.183 115.282C519.356 115.735 518.487 116.097 517.58 116.362L516.935 119.31C516.825 119.811 516.383 120.168 515.871 120.168V120.164ZM512.826 117.985H514.994L515.594 115.241C515.683 114.829 516.001 114.508 516.411 114.412C517.553 114.144 518.638 113.696 519.633 113.075C519.99 112.851 520.441 112.856 520.798 113.085L523.162 114.6L524.694 113.066L523.179 110.7C522.952 110.35 522.95 109.896 523.169 109.542C523.792 108.53 524.245 107.445 524.508 106.314C524.604 105.905 524.925 105.587 525.337 105.497L528.076 104.898V102.73L525.337 102.131C524.925 102.041 524.604 101.723 524.508 101.316C524.245 100.185 523.794 99.1003 523.169 98.091C522.95 97.734 522.952 97.2831 523.179 96.9283L524.694 94.564L523.162 93.0329L520.796 94.548C520.443 94.7746 519.99 94.7769 519.633 94.5572C518.631 93.9346 517.546 93.4837 516.408 93.2182C515.999 93.1221 515.681 92.7994 515.591 92.3897L514.992 89.6478H512.824L512.225 92.3897C512.135 92.8017 511.817 93.1221 511.407 93.2182C510.272 93.4837 509.19 93.9323 508.183 94.5572C507.823 94.7792 507.372 94.7746 507.02 94.548L504.653 93.0329L503.122 94.564L504.637 96.9283C504.864 97.2808 504.866 97.7362 504.646 98.0933C504.026 99.0866 503.575 100.174 503.303 101.318C503.207 101.728 502.886 102.041 502.477 102.131L499.742 102.73V104.898L502.481 105.497C502.893 105.587 503.214 105.907 503.31 106.314C503.578 107.454 504.026 108.541 504.649 109.537C504.871 109.894 504.866 110.345 504.64 110.7L503.124 113.066L504.656 114.597L507.022 113.085C507.377 112.856 507.828 112.856 508.185 113.075C509.183 113.698 510.268 114.147 511.407 114.412C511.817 114.508 512.135 114.829 512.225 115.241L512.824 117.985H512.826ZM513.907 111.446C509.7 111.446 506.278 108.024 506.278 103.817C506.278 99.6107 509.7 96.189 513.907 96.189C518.114 96.189 521.535 99.6107 521.535 103.817C521.535 104.422 521.048 104.907 520.446 104.907C519.844 104.907 519.356 104.422 519.356 103.817C519.356 100.815 516.912 98.3679 513.907 98.3679C510.902 98.3679 508.457 100.815 508.457 103.817C508.457 106.82 510.902 109.267 513.907 109.267C514.271 109.267 514.625 109.233 514.969 109.164C515.573 109.054 516.134 109.432 516.248 110.025C516.365 110.615 515.98 111.187 515.39 111.304C514.912 111.398 514.415 111.446 513.907 111.446Z" fill="#D83A56"/>
<path d="M519.361 109.423C519.963 109.423 520.45 108.935 520.45 108.333C520.45 107.731 519.963 107.244 519.361 107.244C518.759 107.244 518.271 107.731 518.271 108.333C518.271 108.935 518.759 109.423 519.361 109.423Z" fill="#D83A56"/>
<path d="M133.043 101.531L88.1831 88.9427L132.814 87.7983L133.043 101.531Z" fill="#191F35"/>
<path d="M137.62 74.5234L132.814 87.7982L137.849 98.0976L88.1831 88.9426L137.62 74.5234Z" fill="#32537A"/>
<path d="M88.1831 88.9425L132.8 89.3407L132.814 87.7981L133.679 85.4956L88.1831 88.9425Z" fill="#191F35"/>
<path d="M248 324.81H232.564V348.927H202.337V324.81H157.479V300.934L198.801 237.506H232.564V300.934H248V324.81ZM202.337 300.934V268.157L181.562 300.934H202.337Z" fill="#D83A56"/>
<path d="M297.842 350.616C284.604 350.616 274.126 345.404 266.408 334.979C258.69 324.556 254.832 310.849 254.832 293.859C254.832 276.87 258.784 262.696 266.69 252.618C274.595 242.543 285.167 237.506 298.405 237.506C311.643 237.506 322.924 242.88 330.319 253.623C337.714 264.369 341.413 278.101 341.413 294.823C341.413 311.545 337.433 325.426 329.475 335.501C321.517 345.578 310.97 350.614 297.842 350.614V350.616ZM298.162 327.303C302.772 327.303 305.852 324.369 307.406 318.5C308.961 312.632 309.739 304.605 309.739 294.423C309.739 280.434 308.706 271.297 306.644 267.01C304.58 262.723 301.781 260.579 298.242 260.579C293.953 260.579 290.994 263.405 289.36 269.061C287.723 274.716 286.908 282.5 286.908 292.415C286.908 305.869 287.725 315.047 289.36 319.949C290.994 324.854 293.928 327.305 298.162 327.305V327.303Z" fill="#D83A56"/>
<path d="M441.099 324.81H425.664V348.927H395.436V324.81H350.579V300.934L391.9 237.506H425.664V300.934H441.099V324.81ZM395.436 300.934V268.157L374.661 300.934H395.436Z" fill="#D83A56"/>
<path d="M433.407 90.2267C435.998 90.2267 438.099 88.126 438.099 85.5347C438.099 82.9434 435.998 80.8428 433.407 80.8428C430.815 80.8428 428.715 82.9434 428.715 85.5347C428.715 88.126 430.815 90.2267 433.407 90.2267Z" fill="#C11D42"/>
<path d="M432.143 82.8936L432.901 84.0265C433.1 84.324 433.265 84.5918 433.439 84.8871H433.464C433.64 84.5781 433.817 84.3034 434 84.0173L434.734 82.8958H435.78L433.977 85.4501L435.828 88.1806H434.741L433.958 86.9927C433.755 86.686 433.579 86.3885 433.393 86.0726H433.368C433.194 86.3953 433.013 86.6723 432.807 86.995L432.047 88.1829H430.985L432.867 85.4867L431.072 82.8981H432.141L432.143 82.8936Z" fill="white"/>
<path d="M379.164 70.3145C381.755 70.3145 383.856 68.2139 383.856 65.6226C383.856 63.0313 381.755 60.9307 379.164 60.9307C376.572 60.9307 374.472 63.0313 374.472 65.6226C374.472 68.2139 376.572 70.3145 379.164 70.3145Z" fill="#C11D42"/>
<path d="M377.9 62.9814L378.658 64.1144C378.857 64.4119 379.022 64.6797 379.196 64.9749H379.221C379.397 64.666 379.573 64.3913 379.756 64.1052L380.491 62.9837H381.537L379.734 65.538L381.585 68.2685H380.498L379.715 67.0806C379.512 66.7739 379.335 66.4764 379.15 66.1605H379.125C378.951 66.4832 378.77 66.7602 378.564 67.0829L377.804 68.2707H376.742L378.624 65.5746L376.829 62.986H377.898L377.9 62.9814Z" fill="white"/>
<path d="M207.965 93.2022C210.556 93.2022 212.657 91.1016 212.657 88.5103C212.657 85.919 210.556 83.8184 207.965 83.8184C205.374 83.8184 203.273 85.919 203.273 88.5103C203.273 91.1016 205.374 93.2022 207.965 93.2022Z" fill="#C11D42"/>
<path d="M206.702 85.8691L207.459 87.0021C207.658 87.2996 207.823 87.5674 207.997 87.8626H208.022C208.198 87.5537 208.375 87.279 208.558 86.9929L209.292 85.8714H210.338L208.535 88.4257L210.386 91.1562H209.299L208.517 89.9683C208.313 89.6616 208.137 89.3641 207.951 89.0482H207.926C207.752 89.3709 207.571 89.6479 207.365 89.9706L206.605 91.1584H205.543L207.425 88.4623L205.63 85.8737H206.699L206.702 85.8691Z" fill="white"/>
</svg>
